<mxfile host="app.diagrams.net" modified="2023-09-12T20:09:11.187Z" agent="Mozilla/5.0 (Windows NT 10.0; Win64; x64) AppleWebKit/537.36 (KHTML, like Gecko) Chrome/116.0.0.0 Safari/537.36" etag="I4DJP7LkaSMKGwQMDhSM" version="21.7.4" type="device">
  <diagram name="Página-1" id="jUlyAG2fyFXYifK7jQEw">
    <mxGraphModel dx="1707" dy="470" grid="1" gridSize="10" guides="1" tooltips="1" connect="1" arrows="1" fold="1" page="1" pageScale="1" pageWidth="827" pageHeight="1169" math="0" shadow="0">
      <root>
        <mxCell id="0" />
        <mxCell id="1" parent="0" />
        <mxCell id="R_NseCEoRNIdNHFulJ2Z-4" style="edgeStyle=orthogonalEdgeStyle;rounded=0;orthogonalLoop=1;jettySize=auto;html=1;" edge="1" parent="1" source="R_NseCEoRNIdNHFulJ2Z-1" target="R_NseCEoRNIdNHFulJ2Z-2">
          <mxGeometry relative="1" as="geometry" />
        </mxCell>
        <mxCell id="R_NseCEoRNIdNHFulJ2Z-1" value="" style="ellipse;html=1;shape=endState;fillColor=#000000;strokeColor=#ff0000;" vertex="1" parent="1">
          <mxGeometry x="50" y="60" width="30" height="30" as="geometry" />
        </mxCell>
        <mxCell id="R_NseCEoRNIdNHFulJ2Z-2" value="Selecionar área de devolução&amp;nbsp;" style="rounded=1;whiteSpace=wrap;html=1;arcSize=40;fontColor=#000000;fillColor=#ffffc0;strokeColor=#ff0000;" vertex="1" parent="1">
          <mxGeometry x="180" y="130" width="120" height="40" as="geometry" />
        </mxCell>
        <mxCell id="R_NseCEoRNIdNHFulJ2Z-3" value="" style="edgeStyle=orthogonalEdgeStyle;html=1;verticalAlign=bottom;endArrow=open;endSize=8;strokeColor=#ff0000;rounded=0;" edge="1" source="R_NseCEoRNIdNHFulJ2Z-2" parent="1">
          <mxGeometry relative="1" as="geometry">
            <mxPoint x="240" y="230" as="targetPoint" />
          </mxGeometry>
        </mxCell>
        <mxCell id="R_NseCEoRNIdNHFulJ2Z-5" value="selecionar livro" style="rounded=1;whiteSpace=wrap;html=1;arcSize=40;fontColor=#000000;fillColor=#ffffc0;strokeColor=#ff0000;" vertex="1" parent="1">
          <mxGeometry x="190" y="240" width="120" height="40" as="geometry" />
        </mxCell>
        <mxCell id="R_NseCEoRNIdNHFulJ2Z-6" value="" style="edgeStyle=orthogonalEdgeStyle;html=1;verticalAlign=bottom;endArrow=open;endSize=8;strokeColor=#ff0000;rounded=0;" edge="1" source="R_NseCEoRNIdNHFulJ2Z-5" parent="1">
          <mxGeometry relative="1" as="geometry">
            <mxPoint x="250" y="340" as="targetPoint" />
          </mxGeometry>
        </mxCell>
        <mxCell id="R_NseCEoRNIdNHFulJ2Z-7" value="existe?" style="rhombus;whiteSpace=wrap;html=1;fontColor=#000000;fillColor=#ffffc0;strokeColor=#ff0000;" vertex="1" parent="1">
          <mxGeometry x="210" y="340" width="80" height="40" as="geometry" />
        </mxCell>
        <mxCell id="R_NseCEoRNIdNHFulJ2Z-8" value="no" style="edgeStyle=orthogonalEdgeStyle;html=1;align=left;verticalAlign=bottom;endArrow=open;endSize=8;strokeColor=#ff0000;rounded=0;" edge="1" source="R_NseCEoRNIdNHFulJ2Z-7" parent="1">
          <mxGeometry x="-1" y="110" relative="1" as="geometry">
            <mxPoint x="390" y="360" as="targetPoint" />
            <mxPoint x="-110" y="100" as="offset" />
          </mxGeometry>
        </mxCell>
        <mxCell id="R_NseCEoRNIdNHFulJ2Z-9" value="yes" style="edgeStyle=orthogonalEdgeStyle;html=1;align=left;verticalAlign=top;endArrow=open;endSize=8;strokeColor=#ff0000;rounded=0;" edge="1" source="R_NseCEoRNIdNHFulJ2Z-7" parent="1">
          <mxGeometry x="-1" y="-122" relative="1" as="geometry">
            <mxPoint x="110" y="350" as="targetPoint" />
            <mxPoint x="120" y="102" as="offset" />
          </mxGeometry>
        </mxCell>
        <mxCell id="R_NseCEoRNIdNHFulJ2Z-10" value="mensagem de erro" style="rounded=1;whiteSpace=wrap;html=1;arcSize=40;fontColor=#000000;fillColor=#ffffc0;strokeColor=#ff0000;" vertex="1" parent="1">
          <mxGeometry x="-10" y="330" width="120" height="40" as="geometry" />
        </mxCell>
        <mxCell id="R_NseCEoRNIdNHFulJ2Z-11" value="" style="edgeStyle=orthogonalEdgeStyle;html=1;verticalAlign=bottom;endArrow=open;endSize=8;strokeColor=#ff0000;rounded=0;entryX=0.233;entryY=0.6;entryDx=0;entryDy=0;entryPerimeter=0;" edge="1" source="R_NseCEoRNIdNHFulJ2Z-10" parent="1" target="R_NseCEoRNIdNHFulJ2Z-15">
          <mxGeometry relative="1" as="geometry">
            <mxPoint x="50" y="430" as="targetPoint" />
            <Array as="points">
              <mxPoint x="50" y="400" />
              <mxPoint x="51" y="400" />
              <mxPoint x="51" y="470" />
              <mxPoint x="717" y="470" />
            </Array>
          </mxGeometry>
        </mxCell>
        <mxCell id="R_NseCEoRNIdNHFulJ2Z-12" value="registrar devoluçao" style="rounded=1;whiteSpace=wrap;html=1;arcSize=40;fontColor=#000000;fillColor=#ffffc0;strokeColor=#ff0000;" vertex="1" parent="1">
          <mxGeometry x="390" y="340" width="120" height="40" as="geometry" />
        </mxCell>
        <mxCell id="R_NseCEoRNIdNHFulJ2Z-13" value="" style="edgeStyle=orthogonalEdgeStyle;html=1;verticalAlign=bottom;endArrow=open;endSize=8;strokeColor=#ff0000;rounded=0;" edge="1" source="R_NseCEoRNIdNHFulJ2Z-12" parent="1" target="R_NseCEoRNIdNHFulJ2Z-14">
          <mxGeometry relative="1" as="geometry">
            <mxPoint x="630" y="360" as="targetPoint" />
          </mxGeometry>
        </mxCell>
        <mxCell id="R_NseCEoRNIdNHFulJ2Z-16" style="edgeStyle=orthogonalEdgeStyle;rounded=0;orthogonalLoop=1;jettySize=auto;html=1;entryX=0;entryY=0.5;entryDx=0;entryDy=0;" edge="1" parent="1" source="R_NseCEoRNIdNHFulJ2Z-14" target="R_NseCEoRNIdNHFulJ2Z-15">
          <mxGeometry relative="1" as="geometry">
            <Array as="points">
              <mxPoint x="630" y="210" />
              <mxPoint x="690" y="210" />
              <mxPoint x="690" y="155" />
            </Array>
          </mxGeometry>
        </mxCell>
        <mxCell id="R_NseCEoRNIdNHFulJ2Z-14" value="registrar no historico" style="rounded=1;whiteSpace=wrap;html=1;arcSize=40;fontColor=#000000;fillColor=#ffffc0;strokeColor=#ff0000;" vertex="1" parent="1">
          <mxGeometry x="570" y="250" width="120" height="40" as="geometry" />
        </mxCell>
        <mxCell id="R_NseCEoRNIdNHFulJ2Z-15" value="" style="ellipse;html=1;shape=endState;fillColor=#000000;strokeColor=#ff0000;" vertex="1" parent="1">
          <mxGeometry x="710" y="140" width="30" height="30" as="geometry" />
        </mxCell>
      </root>
    </mxGraphModel>
  </diagram>
</mxfile>
